<?xml version="1.0" standalone="no"?>
<!DOCTYPE svg PUBLIC "-//W3C//DTD SVG 20010904//EN"
 "http://www.w3.org/TR/2001/REC-SVG-20010904/DTD/svg10.dtd">
<svg version="1.0" xmlns="http://www.w3.org/2000/svg"
 width="900.000000pt" height="300.000000pt" viewBox="0 0 900.000000 300.000000"
 preserveAspectRatio="xMidYMid meet">
<metadata>
Created by potrace 1.15, written by Peter Selinger 2001-2017
</metadata>
<g transform="translate(0.000000,300.000000) scale(0.100000,-0.100000)"
fill="#ee3e41" stroke="none">
<path d="M1316 2989 c-379 -40 -721 -218 -963 -501 -199 -233 -310 -499 -344
-827 -34 -326 74 -697 289 -990 54 -73 208 -227 286 -285 279 -208 665 -321
981 -287 363 38 644 165 890 402 292 282 445 640 445 1046 0 378 -138 724
-397 994 -252 262 -549 408 -915 448 -108 12 -157 12 -272 0z m314 -576 c98
-19 224 -72 320 -134 141 -90 286 -265 342 -412 30 -80 34 -77 -107 -77 -125
0 -126 0 -135 25 -36 95 -175 239 -285 297 -116 60 -203 82 -330 83 -187 0
-327 -57 -455 -185 -316 -315 -228 -852 173 -1059 104 -54 203 -75 331 -69
214 11 391 112 511 293 l57 85 123 0 c68 0 126 -4 129 -8 8 -13 -48 -134 -98
-212 -149 -229 -392 -379 -666 -410 -155 -18 -318 10 -467 80 -102 48 -157 85
-245 169 -368 347 -380 945 -26 1300 215 215 508 298 828 234z"/>
<path fill="#007ac3" d="M3027 2883 c-4 -3 -7 -620 -7 -1370 l0 -1363 1330 0 1330 0 -2 1368
-3 1367 -1321 3 c-726 1 -1324 -1 -1327 -5z m2201 -665 l-3 -123 -367 -3 -368
-2 0 -695 0 -696 -127 3 -128 3 -3 693 -2 692 -375 0 -375 0 0 125 0 125 875
0 876 0 -3 -122z"/>
<path fill="#009d56" d="M5770 2874 c0 -6 296 -514 457 -782 40 -67 73 -124 73 -126 0 -3 40
-71 88 -153 49 -81 100 -168 114 -193 50 -88 495 -846 521 -887 15 -24 27 -45
27 -47 0 -4 52 -93 258 -443 l66 -111 54 91 c30 51 64 110 77 132 12 22 67
114 120 205 137 231 315 534 363 620 13 25 28 50 32 55 4 6 101 170 215 365
113 195 228 391 255 435 52 88 346 589 377 645 11 19 41 69 67 111 25 42 46
79 46 83 0 3 -722 6 -1605 6 -883 0 -1605 -3 -1605 -6z m923 -487 c8 -6 42
-57 75 -112 33 -55 106 -176 162 -270 57 -93 110 -183 120 -200 9 -16 70 -118
135 -225 65 -107 127 -211 137 -230 11 -19 27 -45 36 -58 17 -22 19 -20 156
210 76 128 149 249 161 268 12 19 98 161 190 315 92 154 176 288 188 298 17
15 39 18 154 16 l135 -1 -6 -23 c-3 -12 -30 -63 -60 -111 -29 -49 -107 -179
-171 -289 -65 -110 -153 -258 -195 -330 -43 -71 -121 -204 -175 -295 -54 -90
-107 -181 -119 -201 -12 -20 -68 -118 -126 -217 -58 -100 -109 -181 -115 -182
-5 0 -34 42 -64 93 -30 50 -87 146 -126 212 -39 66 -141 237 -225 380 -84 143
-179 303 -210 355 -31 52 -88 149 -127 215 -39 66 -105 178 -147 248 -42 71
-74 132 -72 136 8 13 272 11 289 -2z"/>
</g>
</svg>
