<?xml version="1.0" standalone="no"?>
<!DOCTYPE svg PUBLIC "-//W3C//DTD SVG 20010904//EN"
 "http://www.w3.org/TR/2001/REC-SVG-20010904/DTD/svg10.dtd">
<svg version="1.0" xmlns="http://www.w3.org/2000/svg"
 width="880.000000pt" height="533.000000pt" viewBox="0 0 880.000000 533.000000"
 preserveAspectRatio="xMidYMid meet">

<g transform="translate(0.000000,533.000000) scale(0.100000,-0.100000)"
fill="#000" stroke="none">
<path fill="#f00" d="M6207 4863 c-9 -9 -9 -1055 1 -1069 4 -6 194 -145 422 -309 930 -668
953 -686 962 -699 16 -23 8 -73 -14 -93 -13 -11 -149 -112 -303 -223 -154
-112 -290 -212 -302 -223 l-23 -20 0 -507 c0 -279 3 -510 6 -513 7 -7 21 2
165 108 53 38 362 263 687 500 l592 430 0 526 0 526 -642 464 c-354 255 -807
582 -1008 728 -417 302 -527 381 -533 381 -2 0 -7 -3 -10 -7z"/>
<path d="M969 3236 c-364 -77 -590 -402 -566 -815 25 -418 305 -699 702 -703
140 -1 245 31 338 104 l37 30 0 -50 0 -50 123 -7 c68 -4 132 -6 143 -3 18 3
19 17 22 401 l2 397 -327 -2 -328 -3 -3 -142 -3 -143 166 0 c135 0 165 -3 165
-14 0 -18 -67 -104 -110 -139 -71 -60 -107 -72 -215 -72 -89 0 -106 3 -150 26
-148 78 -246 273 -231 459 10 132 48 221 130 308 85 91 186 127 305 111 106
-15 194 -71 251 -159 l32 -50 154 0 154 0 0 25 c0 13 -10 50 -21 82 -74 201
-228 343 -431 399 -77 21 -259 26 -339 10z"/>
<path d="M1987 3213 c-4 -3 -7 -334 -7 -735 l0 -728 170 0 170 0 0 735 0 735
-163 0 c-90 0 -167 -3 -170 -7z"/>
<path d="M3755 3208 c-3 -7 -4 -339 -3 -737 l3 -724 150 -1 c83 -1 156 0 163
2 6 2 12 17 12 33 l0 29 53 -29 c155 -88 362 -80 499 19 136 97 208 265 208
485 0 252 -95 437 -268 522 -68 34 -85 38 -168 41 -107 4 -182 -13 -257 -59
-26 -16 -49 -29 -52 -29 -3 0 -6 102 -7 228 l-3 227 -163 3 c-124 2 -164 0
-167 -10z m608 -642 c43 -18 81 -61 109 -121 19 -42 22 -67 23 -160 0 -105 -2
-114 -32 -175 -36 -73 -79 -109 -142 -117 -131 -18 -219 75 -237 249 -7 72 9
175 36 227 48 94 153 136 243 97z"/>
<path d="M6187 3214 c-4 -4 -7 -335 -7 -736 l0 -728 170 0 170 0 -2 733 -3
732 -161 3 c-88 1 -163 -1 -167 -4z"/>
<path d="M2873 2836 c-191 -47 -336 -197 -384 -396 -17 -71 -17 -239 0 -310
20 -84 77 -193 129 -246 103 -104 217 -153 378 -161 298 -16 522 144 579 412
32 150 11 331 -52 448 -62 116 -193 216 -330 251 -73 19 -245 20 -320 2z m240
-270 c45 -19 93 -73 112 -126 22 -62 29 -174 16 -244 -25 -134 -84 -196 -191
-204 -76 -6 -121 10 -164 58 -46 51 -66 121 -66 235 0 149 40 238 124 276 49
22 124 24 169 5z"/>
<path d="M5312 2830 c-183 -48 -286 -156 -308 -322 l-7 -48 170 0 171 0 11 45
c6 25 20 54 31 65 46 46 186 50 236 7 14 -13 27 -37 31 -60 11 -68 -20 -84
-227 -112 -211 -29 -282 -53 -354 -116 -79 -69 -116 -216 -83 -330 44 -148
152 -225 333 -236 105 -7 213 13 291 53 60 30 63 30 63 0 0 -14 4 -28 10 -31
5 -3 77 -3 160 1 l151 7 -3 436 c-3 425 -4 437 -25 476 -47 88 -145 151 -268
174 -96 18 -299 13 -383 -9z m338 -648 c0 -59 -27 -135 -57 -164 -37 -36 -73
-48 -139 -48 -104 0 -153 42 -139 117 8 43 54 79 117 92 101 21 193 38 206 40
8 1 12 -13 12 -37z"/>
<path d="M6062 1480 c-109 -23 -207 -93 -247 -175 -24 -50 -31 -160 -15 -211
17 -50 83 -120 143 -150 26 -14 108 -41 180 -61 185 -50 227 -73 227 -125 0
-16 -4 -37 -10 -47 -26 -49 -178 -67 -257 -31 -49 22 -83 70 -83 118 l0 32
-121 0 -122 0 5 -68 c14 -187 178 -306 423 -306 196 1 328 68 386 199 30 66
32 183 5 235 -49 92 -122 146 -236 175 -152 39 -276 78 -292 93 -24 20 -23 63
2 90 52 56 199 48 250 -13 7 -9 16 -33 19 -53 l6 -37 120 0 120 0 -3 40 c-9
138 -79 228 -217 276 -68 24 -214 34 -283 19z"/>
<path d="M2187 1463 c-4 -3 -7 -226 -7 -495 l0 -488 120 0 120 0 0 286 c0 164
4 283 9 280 5 -3 87 -132 182 -286 l174 -280 123 0 122 0 -2 493 -3 492 -115
0 -115 0 -5 -290 -5 -290 -164 265 c-90 146 -172 277 -183 293 -19 27 -20 27
-132 27 -62 0 -116 -3 -119 -7z"/>
<path d="M3349 1468 c-5 -9 -6 -911 -2 -945 l5 -43 379 0 379 0 0 105 0 105
-255 0 -256 0 3 98 3 97 165 -3 c91 -2 193 0 228 3 l62 7 0 99 0 99 -230 0
-230 0 0 80 0 80 248 2 247 3 3 108 3 107 -376 0 c-206 0 -376 -1 -376 -2z"/>
<path d="M4290 1464 c0 -3 38 -150 86 -327 47 -177 99 -374 115 -437 17 -63
37 -139 45 -167 l15 -53 122 0 123 0 69 280 c38 154 72 280 75 280 3 0 37
-126 75 -280 l69 -280 121 0 121 0 63 233 c34 127 94 347 132 488 38 141 69
259 69 263 0 4 -55 5 -122 4 l-123 -3 -17 -65 c-9 -36 -40 -165 -69 -287 -29
-123 -55 -220 -58 -217 -3 3 -37 132 -76 287 l-70 282 -115 0 -114 0 -71 -277
c-60 -235 -85 -319 -85 -284 0 8 -118 520 -126 549 -5 15 -20 17 -130 17 -68
0 -124 -3 -124 -6z"/>
</g>
</svg>
