<?xml version="1.0" standalone="no"?>
<!DOCTYPE svg PUBLIC "-//W3C//DTD SVG 20010904//EN"
 "http://www.w3.org/TR/2001/REC-SVG-20010904/DTD/svg10.dtd">
<svg version="1.0" xmlns="http://www.w3.org/2000/svg"
 width="300.000000pt" height="300.000000pt" viewBox="0 0 300.000000 300.000000"
 preserveAspectRatio="xMidYMid meet">
<metadata>
Created by potrace 1.15, written by Peter Selinger 2001-2017
</metadata>
<g transform="translate(0.000000,300.000000) scale(0.100000,-0.100000)"
fill="#000000" stroke="none">
<path fill="#010242" d="M1285 2799 c-466 -68 -861 -389 -1020 -829 -105 -293 -98 -631 22
-920 161 -392 503 -673 926 -761 130 -27 341 -30 472 -6 461 84 846 419 990
862 83 255 78 566 -11 817 -142 396 -479 706 -879 807 -159 40 -352 51 -500
30z m440 -249 c180 -49 323 -130 462 -263 141 -135 239 -302 290 -495 22 -84
26 -119 27 -252 0 -131 -3 -169 -23 -243 -103 -396 -382 -675 -776 -778 -77
-20 -113 -23 -245 -23 -133 1 -168 5 -252 27 -400 106 -702 429 -774 827 -18
101 -17 280 2 380 79 416 395 739 814 831 119 26 359 21 475 -11z"/>
<path fill="#010242" d="M1063 1870 c-60 -13 -94 -33 -139 -82 -63 -68 -79 -121 -79 -263 0
-111 2 -124 27 -171 33 -63 95 -118 156 -138 95 -33 290 -9 351 42 l21 17 -24
52 -25 52 -43 -21 c-60 -29 -164 -36 -211 -13 -41 19 -73 65 -79 110 l-3 30
199 3 199 2 -5 93 c-10 187 -88 280 -246 292 -31 2 -76 0 -99 -5z m128 -140
c25 -14 49 -62 49 -100 l0 -30 -110 0 c-104 0 -110 1 -110 20 0 28 36 97 57
109 23 13 89 14 114 1z"/>
<path fill="#010242" d="M1818 1870 c-40 -12 -97 -49 -108 -71 -17 -31 -29 -22 -32 24 l-3 42
-78 0 -78 0 -2 -328 -2 -327 88 0 87 0 0 239 0 239 31 26 c24 20 41 26 79 26
107 0 110 -9 110 -300 l0 -230 91 0 91 0 -4 253 c-3 215 -7 258 -22 294 -40
95 -148 143 -248 113z"/>
</g>
</svg>
