<?xml version="1.0" encoding="UTF-8"?>
<svg width="18px" height="17px" viewBox="0 0 18 17" version="1.1" xmlns="http://www.w3.org/2000/svg" xmlns:xlink="http://www.w3.org/1999/xlink">
    <!-- Generator: Sketch 60 (88103) - https://sketch.com -->
    <title>Shape</title>
    <desc>Created with Sketch.</desc>
    <g id="Page-1" stroke="none" stroke-width="1" fill="none" fill-rule="evenodd">
        <g id="Desktop-Copy" transform="translate(-1109.000000, -70.000000)" fill="#8F8F8F" fill-rule="nonzero">
            <g id="Group-3" transform="translate(557.000000, 58.000000)">
                <g id="Group" transform="translate(151.000000, 12.000000)">
                    <g id="noun_Search_2989761" transform="translate(401.000000, 0.000000)">
                        <path fill="#010242" d="M7.77713145,15.8645514 C9.7680771,15.8645514 11.5879259,15.0962538 12.9655891,13.8361552 L16.151991,16.7144381 C16.3630846,16.9048127 16.625285,17 16.8874854,17 C17.1941266,17 17.5007678,16.8708172 17.7207495,16.6169844 C18.1273824,16.147847 18.0851637,15.4316758 17.6252019,15.0169311 L14.3921373,12.0978536 C15.1276317,10.887615 15.5542629,9.45980536 15.5542629,7.9322757 C15.5542629,3.55819224 12.0656639,0 7.77713145,0 C3.48859896,0 0,3.55819224 0,7.9322757 C0,12.3063592 3.48859896,15.8645514 7.77713145,15.8645514 Z M7.77713145,2.26636448 C10.8413212,2.26636448 13.3322253,4.80695907 13.3322253,7.9322757 C13.3322253,11.0575923 10.8413212,13.5981869 7.77713145,13.5981869 C4.71294166,13.5981869 2.22203756,11.0575923 2.22203756,7.9322757 C2.22203756,4.80695907 4.71294166,2.26636448 7.77713145,2.26636448 Z" id="Shape"></path>
                    </g>
                </g>
            </g>
        </g>
    </g>
</svg>