<?xml version="1.0" standalone="no"?>
<!DOCTYPE svg PUBLIC "-//W3C//DTD SVG 20010904//EN"
 "http://www.w3.org/TR/2001/REC-SVG-20010904/DTD/svg10.dtd">
<svg version="1.0" xmlns="http://www.w3.org/2000/svg"
 width="2000.000000pt" height="2000.000000pt" viewBox="0 0 2000.000000 2000.000000"
 preserveAspectRatio="xMidYMid meet">
<metadata>
Created by potrace 1.15, written by Peter Selinger 2001-2017
</metadata>
<g transform="translate(0.000000,2000.000000) scale(0.100000,-0.100000)"
fill="#000000" stroke="none">
<path fill="#010242" d="M9540 17489 c-237 -16 -758 -82 -771 -97 -3 -4 -52 -448 -108 -987
-57 -539 -105 -999 -108 -1021 -5 -41 -6 -42 -67 -58 -191 -52 -527 -173 -721
-259 -171 -76 -216 -98 -368 -179 -86 -46 -153 -76 -160 -71 -7 4 -363 291
-792 638 -429 347 -786 635 -793 639 -15 9 -156 -92 -364 -260 -413 -335 -809
-732 -1143 -1149 -168 -210 -248 -322 -239 -337 5 -7 296 -368 647 -801 l638
-789 -128 -256 c-165 -329 -304 -681 -388 -989 -12 -44 -23 -63 -34 -64 -9 0
-470 -48 -1026 -107 l-1009 -107 -13 -75 c-60 -354 -93 -771 -93 -1160 0 -400
16 -619 77 -1047 l27 -193 28 0 c26 0 1877 -192 1979 -206 l47 -6 27 -96 c90
-316 224 -654 390 -981 63 -123 111 -229 108 -235 -4 -6 -294 -366 -646 -800
-351 -433 -636 -793 -634 -800 7 -17 149 -207 253 -336 311 -388 741 -819
1135 -1136 133 -108 326 -254 345 -261 6 -2 370 286 808 641 439 355 798 646
799 646 1 0 117 -58 257 -128 325 -163 644 -289 953 -377 70 -20 97 -32 98
-44 0 -9 48 -470 107 -1026 l107 -1010 110 -17 c383 -61 732 -88 1128 -88 386
0 805 34 1157 93 l75 13 107 1009 c59 556 107 1017 107 1026 1 11 40 27 139
56 338 101 622 216 951 384 117 60 215 109 216 109 2 0 362 -291 801 -646 438
-355 802 -643 808 -641 41 16 401 300 595 471 159 139 525 504 662 661 176
201 460 560 476 601 2 7 -286 371 -642 809 -355 439 -645 801 -643 805 2 3 53
105 115 226 164 322 299 661 388 976 l27 96 47 6 c101 14 1953 206 1979 206
27 0 28 2 40 83 67 446 92 766 92 1157 0 386 -18 625 -77 1045 l-26 190 -991
104 c-545 56 -1007 105 -1027 108 l-37 5 -27 96 c-100 352 -252 728 -430 1060
-43 82 -73 148 -69 155 4 7 293 364 641 795 349 430 636 788 639 795 5 15
-171 252 -325 437 -283 341 -638 695 -981 981 -138 116 -418 329 -431 329 -6
0 -92 -67 -192 -148 -456 -371 -1393 -1129 -1404 -1135 -7 -5 -75 26 -165 74
-152 81 -174 92 -363 176 -195 86 -530 207 -722 259 -43 12 -63 22 -64 33 0 9
-48 471 -107 1026 l-107 1010 -70 12 c-150 25 -479 64 -670 78 -214 16 -750
18 -955 4z m840 -4185 c1454 -162 2646 -1286 2895 -2729 38 -220 48 -334 48
-565 1 -306 -27 -538 -98 -820 -327 -1301 -1412 -2283 -2740 -2480 -795 -118
-1614 60 -2290 498 -218 141 -478 359 -636 533 -500 552 -785 1183 -870 1929
-18 155 -15 537 5 705 118 985 645 1847 1466 2393 660 439 1427 625 2220 536z"/>
</g>
</svg>
